Coordinates
version=1
nRows=16
nColumns=32
inDegrees=yes

Units are S.I. units (second, meters, Newtons, ...)
If the header above contains a line with 'inDegrees', this indicates whether rotational values are in degrees (yes) or radians (no).

endheader
time	pelvis_tilt	pelvis_list	pelvis_rotation	pelvis_tx	pelvis_ty	pelvis_tz	hip_flexion_r	hip_adduction_r	hip_rotation_r	knee_angle_r	knee_adduction_r	med_cond_adduction_r	lat_cond_adduction_r	patella_r_constrained_knee_angle	ankle_angle_r	subtalar_angle_r	mtp_angle_r	hip_flexion_l	hip_adduction_l	hip_rotation_l	knee_angle_l	knee_adduction_l	med_cond_adduction_l	lat_cond_adduction_l	patella_l_constrained_knee_angle	ankle_angle_l	subtalar_angle_l	mtp_angle_l	lumbar_extension	lumbar_bending	lumbar_rotation
      0.44500000	      5.81000136	     -2.78262723	      0.59270922	     -0.09908697	      0.95019329	      0.26855157	     -3.82516845	      2.22965140	     -9.92537031	     -7.48640213	      3.51254562	     -0.00000000	     -0.00000000	     -0.13066237	     -2.07737049	     -4.37586303	      0.00000000	     12.56356879	    -13.70720771	    -18.96479772	    -64.19895742	     -5.71398288	     -0.00000000	     -0.00000000	     -1.12048318	     -2.98832048	      3.76689469	      0.00000000	     -6.16823001	      6.04406688	     -4.75175432
      0.45000000	      5.82527377	     -2.65906099	      0.51369670	     -0.09279091	      0.95059522	      0.26859344	     -4.47376323	      2.04256100	    -10.11385598	     -7.13723546	      3.64667597	     -0.00000000	     -0.00000000	     -0.12456826	     -1.95239856	     -4.06899804	      0.00000000	     13.18715625	    -13.50700871	    -18.43651007	    -63.51287495	     -4.99460727	     -0.00000000	     -0.00000000	     -1.10850879	     -2.25546556	      3.64885581	      0.00000000	     -6.19597303	      5.94058526	     -4.60703660
      0.45500000	      5.82290963	     -2.56383158	      0.15318015	     -0.08646995	      0.95096878	      0.26943537	     -5.13348032	      1.99385135	     -9.78873285	     -6.65568845	      3.64878280	     -0.00000000	     -0.00000000	     -0.11616368	     -1.98922496	     -4.13728045	     -0.00000000	     13.68696895	    -13.49120635	    -18.21677729	    -62.71468163	     -4.23114636	     -0.00000000	     -0.00000000	     -1.09457768	     -1.67245644	      3.56042999	     -0.00000000	     -6.23434921	      5.67500175	     -4.39585392
      0.46000000	      5.86061668	     -2.38612498	     -0.04024945	     -0.08020381	      0.95134493	      0.26980898	     -5.74940831	      1.75283786	     -9.88170874	     -6.41642296	      3.75095222	      0.00000000	     -0.00000000	     -0.11198771	     -1.75890724	     -3.76662010	      0.00000000	     14.17846687	    -13.26642890	    -17.87239172	    -61.84010697	     -3.55031206	     -0.00000000	     -0.00000000	     -1.07931348	     -1.12695182	      3.33587410	      0.00000000	     -6.30958893	      5.53522665	     -4.02944267
      0.46500000	      5.82255695	     -2.42323737	     -0.30763651	     -0.07388071	      0.95146430	      0.27039481	     -6.40244403	      1.84035297	     -9.54650177	     -5.86388747	      3.77003915	     -0.00000000	     -0.00000000	     -0.10234414	     -1.89990396	     -3.99749299	     -0.00000000	     14.73845535	    -13.39093706	    -17.58349070	    -61.00649378	     -2.81723424	      0.00000000	      0.00000000	     -1.06476418	     -0.52504426	      3.35857787	      0.00000000	     -6.29175229	      5.29353757	     -4.17058889
      0.47000000	      5.81978772	     -2.36151595	     -0.55969684	     -0.06761408	      0.95161411	      0.27094281	     -7.02470234	      1.77635804	     -9.36287079	     -5.47674253	      3.81436728	      0.00000000	      0.00000000	     -0.09558719	     -1.86759869	     -3.96181835	      0.00000000	     15.22803312	    -13.35988401	    -17.32666904	    -60.06899273	     -2.14677438	      0.00000000	      0.00000000	     -1.04840170	     -0.02769961	      3.23212401	      0.00000000	     -6.32501379	      5.11244922	     -4.03210463
      0.47500000	      5.84507608	     -2.23891825	     -0.79389448	     -0.06129912	      0.95178709	      0.27143005	     -7.67933762	      1.61926669	     -9.22323340	     -5.10818599	      3.88999740	     -0.00000000	     -0.00000000	     -0.08915466	     -1.78360832	     -3.89049958	     -0.00000000	     15.64721969	    -13.23292595	    -17.16868768	    -59.02262333	     -1.58630214	     -0.00000000	     -0.00000000	     -1.03013911	      0.35472200	      3.13065307	     -0.00000000	     -6.38526051	      4.90589061	     -3.80917176
      0.48000000	      5.90610748	     -2.13330115	     -1.23771835	     -0.05502370	      0.95200072	      0.27247290	     -8.37623269	      1.52571205	     -8.74104805	     -4.67138382	      3.87521918	     -0.00000000	     -0.00000000	     -0.08153103	     -1.79664966	     -4.02365806	     -0.00000000	     15.91041302	    -13.23032112	    -17.26472455	    -57.88638828	     -1.02180925	     -0.00000000	     -0.00000000	     -1.01030807	      0.73422871	      3.08199091	      0.00000000	     -6.51986374	      4.72198928	     -3.26496996
      0.48500000	      5.90848001	     -2.09453848	     -1.39960163	     -0.04874651	      0.95196437	      0.27275517	     -9.00598790	      1.44746727	     -8.63026173	     -4.30459412	      3.95934184	      0.00000000	      0.00000000	     -0.07512934	     -1.73028099	     -4.00137058	     -0.00000000	     16.36411978	    -13.16343945	    -17.08456473	    -56.79670866	     -0.55001724	     -0.00000000	     -0.00000000	     -0.99128957	      1.07797963	      2.96531293	      0.00000000	     -6.55002048	      4.49547888	     -3.36116326
      0.49000000	      5.92597009	     -1.99815682	     -1.51698115	     -0.04246401	      0.95189513	      0.27293657	     -9.58359338	      1.26545512	     -8.74938443	     -4.10277621	      4.07512430	      0.00000000	      0.00000000	     -0.07160695	     -1.50419565	     -3.64523159	     -0.00000000	     16.78474684	    -12.99431311	    -16.96403346	    -55.63469847	     -0.18179579	     -0.00000000	     -0.00000000	     -0.97100867	      1.38272553	      2.88640030	     -0.00000000	     -6.59433268	      4.42871292	     -3.11751381
      0.49500000	      5.97651738	     -1.91724008	     -1.90284794	     -0.03621942	      0.95192786	      0.27370937	    -10.26223847	      1.14951194	     -8.29034211	     -3.68759199	      4.10303408	     -0.00000000	     -0.00000000	     -0.06436062	     -1.51049263	     -3.79201574	     -0.00000000	     17.01870639	    -12.93605411	    -17.18752837	    -54.33852882	      0.12391037	      0.00000000	      0.00000000	     -0.94838624	      1.66900672	      2.81378887	      0.00000000	     -6.72478898	      4.09570388	     -3.00980790
      0.50000000	      6.06041933	     -1.72470361	     -2.16367368	     -0.02989439	      0.95192317	      0.27427589	    -10.96275736	      0.86899608	     -8.12037808	     -3.34807110	      4.20586288	      0.00000000	      0.00000000	     -0.05843486	     -1.37654622	     -3.72095427	      0.00000000	     17.22753860	    -12.70309817	    -17.44100035	    -52.98436873	      0.31767030	      0.00000000	      0.00000000	     -0.92475169	      1.80918386	      2.86045369	      0.00000000	     -6.85007482	      3.86614312	     -2.59187936
      0.50500000	      6.07896848	     -1.70437348	     -2.33470200	     -0.02364144	      0.95166434	      0.27454940	    -11.54550247	      0.77980109	     -8.08976418	     -3.11922392	      4.27632145	     -0.00000000	     -0.00000000	     -0.05444073	     -1.19027993	     -3.48960397	      0.00000000	     17.57320270	    -12.63218699	    -17.53426577	    -51.70248825	      0.52229972	     -0.00000000	     -0.00000000	     -0.90237865	      2.00639932	      2.84019673	      0.00000000	     -6.91521225	      3.79497093	     -2.42364309
      0.51000000	      6.12879631	     -1.59242451	     -2.58570229	     -0.01735181	      0.95145592	      0.27499744	    -12.18936433	      0.57612968	     -7.91209664	     -2.82084273	      4.36613333	     -0.00000000	     -0.00000000	     -0.04923299	     -1.03243643	     -3.41258728	     -0.00000000	     17.79984685	    -12.45831539	    -17.84812247	    -50.29332147	      0.59954915	      0.00000000	     -0.00000000	     -0.87778405	      2.14314663	      2.88416772	      0.00000000	     -7.02063780	      3.55643987	     -2.23352921
      0.51500000	      6.13948235	     -1.58198286	     -2.90125964	     -0.01113670	      0.95109651	      0.27553842	    -12.81195059	      0.50838775	     -7.50794466	     -2.43682968	      4.39091282	      0.00000000	      0.00000000	     -0.04253070	     -0.98500982	     -3.48025948	     -0.00000000	     18.05590755	    -12.42859347	    -18.23932580	    -48.89806384	      0.65252921	      0.00000000	      0.00000000	     -0.85343221	      2.34137247	      2.86293414	     -0.00000000	     -7.10208919	      3.36035988	     -2.12435225
      0.52000000	      6.22857305	     -1.37490199	     -3.19587148	     -0.00482002	      0.95088558	      0.27613746	    -13.48774266	      0.18036732	     -7.36571189	     -2.15005226	      4.50093296	     -0.00000000	     -0.00000000	     -0.03752549	     -0.81219768	     -3.38900801	     -0.00000000	     18.14838594	    -12.13693169	    -18.75927375	    -47.30744659	      0.59517902	     -0.00000000	     -0.00000000	     -0.82567070	      2.28610344	      3.03756118	     -0.00000000	     -7.24250539	      3.17426302	     -1.53960855
